<svg xmlns="http://www.w3.org/2000/svg" viewBox="0 0 50 50.5"><defs><style>.cls-1{fill:none;}.cls-1,.cls-4{stroke:#fff;}.cls-1,.cls-4,.cls-5{stroke-miterlimit:10;}.cls-2{font-size:27.32px;fill:red;font-family:CaptureSmallzClean, Capture Smallz Clean;}.cls-3,.cls-4,.cls-5{fill:#fff;}.cls-4{stroke-width:0.75px;}.cls-5{stroke:#fc0310;}</style></defs><g id="Layer_2" data-name="Layer 2"><g id="Layer_1-2" data-name="Layer 1"><rect width="50" height="50.5" rx="25"/><path class="cls-1" d="M42.6,32.7a19,19,0,1,1-1.49-19.12"/><text class="cls-2" transform="translate(23.34 34.2)">K</text><path class="cls-3" d="M21.57,29.55a6.62,6.62,0,0,1-2.75.5,4.87,4.87,0,0,1-5.15-5.27,5.18,5.18,0,0,1,5.44-5.47,5.64,5.64,0,0,1,2.47.46l-.32,1.1a4.87,4.87,0,0,0-2.1-.43c-2.44,0-4.06,1.56-4.06,4.29,0,2.55,1.46,4.19,4,4.19a5.4,5.4,0,0,0,2.19-.43Z"/><line class="cls-4" x1="23" y1="16" x2="12" y2="16"/><line class="cls-5" x1="23" y1="33.5" x2="12" y2="33.5"/></g></g></svg>